<?xml version="1.0" ?><svg id="Camada_1" style="enable-background:new 0 0 32 32;" version="1.1" viewBox="0 0 32 32" xml:space="preserve" xmlns="http://www.w3.org/2000/svg" xmlns:xlink="http://www.w3.org/1999/xlink"><style type="text/css">
	.st0{fill-rule:evenodd;clip-rule:evenodd;fill:#FFFFFF;}
</style><path d="M6,2h20c2.2,0,4,1.8,4,4v20c0,2.2-1.8,4-4,4H6c-2.2,0-4-1.8-4-4V6C2,3.8,3.8,2,6,2z"/><path class="st0" d="M8,21.2v-0.4c0-0.7,0.1-1.3,0.4-2c0.3-0.6,0.6-1.2,1.1-1.7c0.5-0.5,1-0.9,1.7-1.1c0.6-0.3,1.3-0.4,2-0.4H17  c0.8,0,1.6-0.3,2.2-0.9c0.6-0.6,0.9-1.4,0.9-2.2c0-0.8-0.3-1.6-0.9-2.2c-0.6-0.6-1.4-0.9-2.2-0.9h-5.3v3.1H8V6h9.2  c1.7,0,3.4,0.7,4.7,1.9c1.2,1.2,1.9,2.9,1.9,4.7s-0.7,3.4-1.9,4.7c-1.2,1.2-2.9,1.9-4.7,1.9h-2.6l-1.6,0C11.1,19.1,9.3,19.9,8,21.2z   M11.7,21.3V26H8c0-2,1.2-3.8,3-4.5C11.2,21.4,11.4,21.3,11.7,21.3z"/></svg>