<svg xmlns="http://www.w3.org/2000/svg" xmlns:xlink="http://www.w3.org/1999/xlink" height="512px" style="enable-background:new 0 0 512 512;" viewBox="0 0 512 512" width="512px" xml:space="preserve"><g id="_x37_24_x2C__mail_x2C__love_x2C__heart_x2C__wedding"><g><path d="M455.35,154.71v208.659L327.86,239.87c5.75-10.1,9.12-20.18,9.12-30.27    c0-2.95-0.421-5.82-1.23-8.56l119.6-123.1V154.71z" style="fill:#B0B7DC;"></path><path d="M336.98,246.701c5.75-10.1,9.12-20.18,9.12-30.27c0-2.95-0.421-5.82-1.23-8.56L455.35,94.158V77.94    l-119.6,123.1c0.81,2.74,1.23,5.61,1.23,8.56c0,10.09-3.37,20.17-9.12,30.27l127.489,123.5v-2.004L336.98,246.701z" style="fill:#9BA5CC;"></path><path d="M327.86,239.87l127.489,123.5H74.78L191.85,242.39c14.21,23.36,40.71,46.739,67.22,70.081    C286.59,288.289,314.07,264.07,327.86,239.87z" style="fill:#E3C6D3;"></path><path d="M191.85,256.339c14.21,23.36,40.71,46.741,67.22,70.081c27.52-24.18,55-48.4,68.79-72.6    l113.089,109.549h14.4L327.86,239.87c-13.79,24.201-41.271,48.419-68.79,72.601c-26.51-23.342-53.01-46.721-67.22-70.081    L74.78,363.369h13.5L191.85,256.339z" style="fill:#C4A5B6;"></path><path d="M191.85,242.39L74.78,363.369V77.94l108.95,119.62c-1.6,3.75-2.48,7.81-2.48,12.04    C181.25,220.53,185.2,231.45,191.85,242.39z" style="fill:#B0B7DC;"></path><g><path d="M190.128,239.434c0.21,1.307,0.474,2.615,0.788,3.922l0.935-0.966     C191.251,241.404,190.682,240.419,190.128,239.434z" style="fill:#9BA5CC;"></path><path d="M83.03,100.19l98.26,107.883c0.185-3.68,1.034-7.216,2.44-10.513L74.78,77.94v285.429l8.25-8.525     V100.19z" style="fill:#9BA5CC;"></path></g><path d="M183.73,197.56L74.78,77.94h120.08h260.49l-119.6,123.1c-4.33-14.76-19.57-25.69-37.68-25.69    c-19.45,0-29.28,8.56-39,25.69c-9.73-17.13-19.46-25.69-38.92-25.69C203.51,175.35,189.28,184.59,183.73,197.56z" style="fill:#E3C6D3;"></path><g><path d="M94.03,87.19h120.08h232.252l8.987-9.25H194.86H74.78l108.95,119.62     c1.096-2.562,2.543-4.971,4.268-7.199L94.03,87.19z" style="fill:#C4A5B6;"></path></g><path d="M220.15,175.35c19.46,0,29.19,8.56,38.92,25.69c9.72-17.13,19.55-25.69,39-25.69    c18.109,0,33.35,10.93,37.68,25.69c0.81,2.74,1.23,5.61,1.23,8.56c0,10.09-3.37,20.17-9.12,30.27    c-13.79,24.201-41.271,48.419-68.79,72.601c-26.51-23.342-53.01-46.721-67.22-70.081c-6.65-10.94-10.6-21.86-10.6-32.79    c0-4.23,0.88-8.29,2.48-12.04C189.28,184.59,203.51,175.35,220.15,175.35z" style="fill:#EF3E5C;"></path><g><g><g><path d="M209.35,250.39c-6.65-10.94-10.6-21.86-10.6-32.79c0-4.23,0.88-8.29,2.48-12.04       c5.55-12.97,19.78-22.21,36.42-22.21c3.025,0,5.815,0.208,8.407,0.622c-6.633-5.744-14.637-8.622-25.907-8.622       c-16.64,0-30.87,9.24-36.42,22.21c-1.6,3.75-2.48,7.81-2.48,12.04c0,10.93,3.95,21.85,10.6,32.79       c14.21,23.36,40.71,46.739,67.22,70.081c1.415-1.244,2.829-2.486,4.241-3.73C241.53,289.299,221.18,269.838,209.35,250.39z" style="fill:#E42A53;"></path></g></g></g><path d="M228.82,406.879H47.59c-2.761,0-5-2.238-5-5s2.239-5,5-5h181.23c2.761,0,5,2.238,5,5    S231.581,406.879,228.82,406.879z" style="fill:#EF3E5C;"></path><path d="M464.41,434.061H228.82c-2.761,0-5-2.238-5-5s2.239-5,5-5h235.59c2.762,0,5,2.238,5,5    S467.172,434.061,464.41,434.061z" style="fill:#EF3E5C;"></path><path d="M314.037,119.18h-199.35c-2.761,0-5-2.239-5-5s2.239-5,5-5h199.35c2.762,0,5,2.239,5,5    S316.799,119.18,314.037,119.18z" style="fill:#C4A5B6;"></path></g></g><g id="Layer_1"></g></svg>